<?xml version="1.0" encoding="utf-8"?>
<!-- Generator: Adobe Illustrator 17.1.0, SVG Export Plug-In . SVG Version: 6.00 Build 0)  -->
<!DOCTYPE svg PUBLIC "-//W3C//DTD SVG 1.1//EN" "http://www.w3.org/Graphics/SVG/1.1/DTD/svg11.dtd">
<svg version="1.1" id="Layer_1" xmlns="http://www.w3.org/2000/svg" xmlns:xlink="http://www.w3.org/1999/xlink" x="0px" y="0px"
	 viewBox="0 0 400 400" enable-background="new 0 0 400 400" xml:space="preserve">
<g>
	<path fill="#FFFFFF" d="M172.487,377.445c-57.522-57.521-144.638-65.441-145.472-65.441c-3.751-0.417-6.669-3.752-6.669-7.503
		V26.896c0-2.084,0.833-4.168,2.501-5.419c1.25-1.667,3.334-2.084,5.418-2.084c1.25,0,23.759,2.084,54.188,11.671
		c28.344,8.753,68.776,25.843,100.872,57.939c1.25,1.667,2.084,3.334,2.084,5.418v277.605c0,2.918-2.084,5.836-4.585,7.086
		c-0.834,0.417-2.084,0.417-2.918,0.417C175.821,379.529,174.154,378.695,172.487,377.445z M220.005,379.112
		c-2.918-1.25-4.585-4.168-4.585-7.086V94.421c0-2.084,0.833-3.751,2.084-5.418c17.923-17.507,49.602-42.1,100.871-57.939
		c30.429-9.587,52.937-11.671,53.771-11.671c2.084,0,4.168,0.833,5.836,2.084c1.667,1.25,2.501,3.334,2.501,5.419v277.605
		c0,3.751-2.918,7.086-7.087,7.503c-0.833,0-87.949,7.92-145.055,65.441c-1.667,1.25-3.334,2.084-5.419,2.084
		C222.089,379.529,220.838,379.529,220.005,379.112z"/>
</g>
</svg>
