<?xml version="1.0" encoding="utf-8"?>
<!-- Generator: Adobe Illustrator 17.1.0, SVG Export Plug-In . SVG Version: 6.00 Build 0)  -->
<!DOCTYPE svg PUBLIC "-//W3C//DTD SVG 1.1//EN" "http://www.w3.org/Graphics/SVG/1.1/DTD/svg11.dtd">
<svg version="1.1" id="Layer_1" xmlns="http://www.w3.org/2000/svg" xmlns:xlink="http://www.w3.org/1999/xlink" x="0px" y="0px"
	 viewBox="0 0 230 230" enable-background="new 0 0 230 230" xml:space="preserve">
<g id="Bullhorn">
	<path fill="#FFFFFF" d="M19.176,141.868c0-3.481,0-6.962,0-10.444c0.16-0.74,0.294-1.488,0.484-2.219
		c1.129-4.346,1.901-8.847,3.486-12.998c3.349-8.771,9.058-15.056,17.796-18.186c10.306-3.691,20.446-7.901,30.7-11.761
		c5.927-2.231,11.106-5.646,15.461-10.417c11.753-12.877,19.888-28.026,24.985-45.074c0.851-2.846,1.698-5.724,2.887-8.418
		c2.427-5.495,5.557-10.447,11.018-13.085c1.599-0.773,3.312-1.282,4.972-1.913c1.968,0,3.936,0,5.904,0
		c6.557,1.594,12.444,4.679,17.801,8.962c7.397,5.914,13.627,13.044,19.13,20.894c14.871,21.215,24.566,44.94,30.033,70.651
		c3.564,16.762,4.952,33.682,2.303,50.768c-1.17,7.548-3.244,14.798-7.536,21.094c-5.362,7.866-12.465,11.178-21.592,9.068
		c-5.622-1.3-10.688-3.917-15.148-7.662c-4.38-3.677-9.253-6.321-14.305-8.655c-12.979-5.999-26.325-9.914-40.693-7.671
		c-2.932,0.458-5.531-0.332-7.446-2.764c-3.184-4.045-6.662-7.924-9.271-12.366c-7.852-13.367-12.612-28.093-15.825-43.404
		c-0.616-2.937-0.988-5.932-1.473-8.9c-0.609,1.599-0.916,3.21-1.131,4.836c-2.994,22.735,0.296,44.235,11.326,64.171
		c0.899,1.626,0.623,2.224-0.956,2.812c-5.878,2.189-11.686,4.592-17.595,6.677c-2.334,0.824-4.853,1.37-7.305,1.457
		c-16.54,0.587-32.941-12.856-36.785-29.987C19.995,145.511,19.585,143.689,19.176,141.868z M190.115,137.863
		c-0.159-0.033-0.318-0.067-0.477-0.1c-0.207-3.262-0.326-6.533-0.634-9.783c-1.847-19.486-7.433-37.816-15.489-55.334
		c-5.877-12.781-13.045-24.677-23.095-34.255c-3.221-3.07-6.987-5.652-10.836-7.779c-3.882-2.146-6.249-1.072-8.124,3.178
		c-1.266,2.869-2.257,5.965-2.836,9.071c-2.414,12.967-1.555,25.926,0.821,38.776c4.083,22.081,11.447,42.811,23.402,61.523
		c5.182,8.111,11.16,15.501,19.074,20.797c1.858,1.243,3.974,2.134,6.068,2.879c2.454,0.873,4.663,0.059,5.935-2.35
		c1.302-2.467,2.729-5.035,3.27-7.746C188.436,150.508,189.173,144.163,190.115,137.863z"/>
	<path fill="#FFFFFF" d="M81.763,221.24c-6.439-2.852-9.881-8.742-12.962-14.828c-2.413-4.767-4.356-9.804-6.492-14.728
		c-0.439-1.012-0.715-1.859,0.767-2.378c7.459-2.614,14.89-5.318,22.32-8.025c2.693-0.981,2.665-1.014,4.085,1.536
		c4.036,7.249,9.9,12.718,15.733,18.226c2.2,2.077,4.434,4.142,6.414,6.444c2.35,2.733,2.107,4.242-0.667,6.557
		c-3.825,3.193-8.373,4.542-13.026,5.499c-3.398,0.699-6.843,1.14-10.268,1.696C85.699,221.24,83.731,221.24,81.763,221.24z"/>
	<path fill="#FFFFFF" d="M164.71,106.611c-0.244-6.301-2.055-12.176-5.967-17.157c-3.66-4.659-8.354-7.324-14.179-7.294
		c-2.999,0.015-3.363,0.573-2.69,3.596c2.89,12.979,7.174,25.417,12.901,37.29c1.143,2.368,1.789,2.523,3.652,0.749
		c0.819-0.78,1.547-1.709,2.163-2.68C163.342,116.783,164.584,111.946,164.71,106.611z"/>
	<path fill="#FFFFFF" d="M164.71,106.611c-0.126,5.335-1.367,10.172-4.12,14.503c-0.617,0.97-1.344,1.9-2.163,2.68
		c-1.863,1.774-2.51,1.619-3.652-0.749c-5.728-11.873-10.012-24.311-12.901-37.29c-0.673-3.023-0.309-3.58,2.69-3.596
		c5.824-0.03,10.519,2.636,14.179,7.294C162.655,94.435,164.466,100.31,164.71,106.611z"/>
</g>
</svg>
