<?xml version="1.0" encoding="utf-8"?>
<!-- Generator: Adobe Illustrator 17.1.0, SVG Export Plug-In . SVG Version: 6.00 Build 0)  -->
<!DOCTYPE svg PUBLIC "-//W3C//DTD SVG 1.1//EN" "http://www.w3.org/Graphics/SVG/1.1/DTD/svg11.dtd">
<svg version="1.1" id="Layer_1" xmlns="http://www.w3.org/2000/svg" xmlns:xlink="http://www.w3.org/1999/xlink" x="0px" y="0px"
	 viewBox="0 0 400 400" enable-background="new 0 0 400 400" xml:space="preserve">
<g display="none">
	<path display="inline" fill="#FFFFFF" d="M172.487,377.445c-57.522-57.521-144.638-65.441-145.472-65.441
		c-3.751-0.417-6.669-3.752-6.669-7.503V26.896c0-2.084,0.833-4.168,2.501-5.419c1.25-1.667,3.334-2.084,5.418-2.084
		c1.25,0,23.759,2.084,54.188,11.671c28.344,8.753,68.776,25.843,100.872,57.939c1.25,1.667,2.084,3.334,2.084,5.418v277.605
		c0,2.918-2.084,5.836-4.585,7.086c-0.834,0.417-2.084,0.417-2.918,0.417C175.821,379.529,174.154,378.695,172.487,377.445z
		 M220.005,379.112c-2.918-1.25-4.585-4.168-4.585-7.086V94.421c0-2.084,0.833-3.751,2.084-5.418
		c17.923-17.507,49.602-42.1,100.871-57.939c30.429-9.587,52.937-11.671,53.771-11.671c2.084,0,4.168,0.833,5.836,2.084
		c1.667,1.25,2.501,3.334,2.501,5.419v277.605c0,3.751-2.918,7.086-7.087,7.503c-0.833,0-87.949,7.92-145.055,65.441
		c-1.667,1.25-3.334,2.084-5.419,2.084C222.089,379.529,220.838,379.529,220.005,379.112z"/>
</g>
<g display="none">
	<g display="inline">
		<path fill="#FFFFFF" d="M334.859,342.863c-100.667,0-201.333,0-302,0c0-100.667,0-201.333,0-302c100.667,0,201.333,0,302,0
			C334.859,141.529,334.859,242.196,334.859,342.863z M111.631,211.841c8.942-16.049,17.58-30.933,29.425-43.565
			c12.013-12.812,25.044-24.091,42.961-28.591c-19.357,28.396-42.017,54.176-60.386,85.583
			c29.911-2.077,53.036-14.676,75.529-29.149c-1.546-2.602-4.922-1.116-5.977-4.179c4.745-3.455,10.645-1.807,16.154-3.436
			c5.896-4.326,12.183-8.725,16.965-15.449c-4.666-3.417-9.999-0.944-14.5-4.301c7.708-4.857,16.182-1.614,23.905-4.962
			c3.639-4.116,8.042-8.378,10.601-14.085c-4.84-3.884-10.683-0.896-14.963-4.174c2.587-3.828,6.468-2.829,9.783-3.315
			c3.841-0.563,7.895,0.228,11.432-1.812c14.599-19.975,24.541-48.334,21.099-60.105
			C209.042,66.346,105.461,149.416,111.631,211.841z M102.813,259.475c15.812-42.275,44.664-75.694,70.057-111.314
			c-41.763,25.019-59.717,66.18-76.185,108.806C99.033,257.928,100.102,258.365,102.813,259.475z"/>
		<path d="M111.631,211.841c-6.169-62.425,97.411-145.494,162.027-131.539c3.442,11.771-6.5,40.13-21.099,60.105
			c-3.537,2.041-7.59,1.249-11.432,1.812c-3.314,0.486-7.196-0.513-9.783,3.315c4.28,3.278,10.124,0.29,14.963,4.174
			c-2.56,5.707-6.962,9.969-10.601,14.085c-7.723,3.348-16.197,0.104-23.905,4.962c4.501,3.357,9.834,0.884,14.5,4.301
			c-4.783,6.724-11.069,11.123-16.965,15.449c-5.509,1.629-11.409-0.019-16.154,3.436c1.055,3.062,4.431,1.577,5.977,4.179
			c-22.493,14.473-45.618,27.072-75.529,29.149c18.369-31.407,41.029-57.187,60.386-85.583
			c-17.916,4.499-30.948,15.779-42.961,28.591C129.211,180.908,120.572,195.792,111.631,211.841z"/>
		<path d="M102.813,259.475c-2.711-1.11-3.78-1.547-6.128-2.508c16.468-42.627,34.422-83.788,76.185-108.806
			C147.477,183.781,118.625,217.201,102.813,259.475z"/>
	</g>
</g>
<g display="none">
	<path display="inline" fill="#FFFFFF" d="M369.36,46.765c-21.799,4.349-41.805,12.915-61.107,23.233
		c-52.79,28.218-98.254,66.106-140.986,107.484c-29.52,28.585-56.638,59.391-82.122,91.614
		c-8.188,10.353-15.869,21.107-24.445,32.563c-2.619-8.327-6.89-14.38-16.191-14.194c3.185-6.076,9.037-7.917,18.467-6.181
		c0.119-0.125,0.35-0.259,0.34-0.372c-2.302-25.943,12.025-44.632,27.441-62.824c4.393-5.184,8.944-10.235,13.617-15.569
		c-0.487,10.023-0.953,19.624-1.419,29.225c0.497,0.027,0.993,0.054,1.49,0.082c2.663-8.667,5.086-17.416,8.045-25.981
		c4.643-13.439,12.199-25.219,21.099-36.265c30.568-37.938,67.171-69.094,107.594-95.935c18.377-12.203,37.65-22.796,58.503-30.265
		c2.427-0.869,4.905-1.596,7.376-2.335c0.433-0.13,0.945,0.003,1.814,0.024c-2.303,6.476-4.522,12.714-6.741,18.953
		c0.236,0.2,0.472,0.401,0.708,0.601c1.863-2.163,3.922-4.189,5.557-6.512c7-9.947,15.931-16.539,28.588-16.561
		c10.772-0.019,21.544,0.192,32.316,0.357c1.006,0.015,2.03,0.358,3.006,0.672c9.835,3.163,10.493,4.325,7.849,14.116
		c-4.509,16.696-11.237,32.458-19.687,47.544c-9.227,16.474-24.672,24.891-41.018,32.156c-4.636,2.061-9.53,3.543-14.335,6.5
		c6.119,0.622,12.239,1.245,19.989,2.033c-26.359,28.287-58.896,44.225-93.307,59.913c5.68,0.222,9.979,0.391,15.827,0.62
		c-5.374,8.074-9.801,15.313-14.807,22.126c-10.88,14.807-24.352,26.949-39.219,37.704c-9.783,7.077-21.064,9.868-32.37,12.85
		c-8.095,2.135-16.172,4.34-24.257,6.513c0,0.699-0.001,1.399-0.001,2.098c13.8,2.132,27.6,4.264,41.513,6.414
		c-2.674,1.586-6.002,4.066-9.709,5.67c-16.241,7.027-33.547,8.524-50.957,9.169c-6.335,0.234-12.687,0.03-18.739,0.025
		c1.577,3.066,3.644,6.027,4.636,9.313c0.999,3.309,0.93,6.941,1.328,10.432c-0.476,0.292-0.953,0.583-1.429,0.875
		c-2.223-1.624-4.772-2.945-6.607-4.928c-5.463-5.906-11.75-8.812-21.296-5.841c5.361-7.703,9.705-14.316,14.42-20.654
		c22.578-30.352,46.564-59.528,72.347-87.24c42.613-45.799,88.518-87.871,141.011-122.113c20.096-13.109,41.769-23.801,62.73-35.581
		C367.233,47.721,368.312,47.271,369.36,46.765z"/>
	<path display="inline" fill="#FFFFFF" d="M344.092,56.367c-6.665,3.736-13.374,7.397-19.989,11.221
		c-51.238,29.626-96.407,67.038-138.574,108.268c-30.985,30.297-59.905,62.502-85.906,97.146
		c-16.899,22.517-32.292,46.164-48.308,69.341c-6.035,8.734-13.202,16.249-22.424,21.657c-0.588,0.345-1.232,0.622-1.883,0.821
		c-0.268,0.082-0.625-0.126-1.782-0.403c3.062-5.115,5.693-10.228,8.978-14.879c19.82-28.063,38.623-56.952,60.026-83.76
		c23.004-28.815,47.302-56.819,73.173-83.072c41.831-42.45,87.495-80.531,139.99-109.56c10.667-5.899,21.862-10.844,32.829-16.199
		c1.136-0.555,2.369-0.909,3.557-1.356C343.884,55.851,343.988,56.109,344.092,56.367z"/>
</g>
<g>
	<path fill="#FFFFFF" d="M24.469,371.306l26.823-109.234l76.58-76.969l82.8,82.8l-76.969,76.581L24.469,371.306z M224.278,263.627
		l-92.13-92.13L236.718,67.316l-12.051-12.051L117.376,162.556l-12.051-12.051L224.667,31.165l24.102,23.712l15.938-15.938
		c11.662-11.662,26.045-15.938,40.04-15.938c20.603,0,40.428,9.33,49.758,18.271c15.16,15.549,31.099,61.031,2.332,89.797
		L224.278,263.627z"/>
</g>
</svg>
