<?xml version="1.0" encoding="utf-8"?>
<!-- Generator: Adobe Illustrator 17.1.0, SVG Export Plug-In . SVG Version: 6.00 Build 0)  -->
<!DOCTYPE svg PUBLIC "-//W3C//DTD SVG 1.1//EN" "http://www.w3.org/Graphics/SVG/1.1/DTD/svg11.dtd">
<svg version="1.1" id="Layer_1" xmlns="http://www.w3.org/2000/svg" xmlns:xlink="http://www.w3.org/1999/xlink" x="0px" y="0px"
	 viewBox="0 0 230 230" enable-background="new 0 0 230 230" xml:space="preserve">
<g id="Quotes">
	<path d="M59.127,130.981h27.687c3.757,0,7.006,1.507,9.741,4.512c2.732,3.009,4.102,6.583,4.102,10.716v60.911
		c0,4.137-1.37,7.711-4.102,10.716c-2.736,3.009-5.984,4.512-9.741,4.512H17.597c-3.761,0-7.01-1.502-9.741-4.512
		c-2.736-3.005-4.102-6.578-4.102-10.716v-76.138c0-35.716,8.5-64.951,25.508-87.7C46.265,20.537,68.524,9.16,96.043,9.16
		c1.366,0,2.475,0.471,3.333,1.41c0.853,0.943,1.282,2.163,1.282,3.666v45.965c0,3.009-1.37,4.701-4.102,5.076
		c-11.965,0.943-21.193,7.05-27.686,18.33C62.372,94.886,59.127,110.678,59.127,130.981z M183.717,130.981h27.687
		c3.757,0,7.006,1.507,9.741,4.512c2.732,3.009,4.102,6.583,4.102,10.716v60.911c0,4.137-1.37,7.711-4.102,10.716
		c-2.736,3.009-5.984,4.512-9.741,4.512h-69.217c-3.761,0-7.01-1.502-9.741-4.512c-2.736-3.005-4.102-6.578-4.102-10.716v-76.138
		c0-35.716,8.5-64.951,25.508-87.7C170.855,20.537,193.114,9.16,220.632,9.16c1.366,0,2.475,0.471,3.333,1.41
		c0.853,0.943,1.282,2.163,1.282,3.666v45.965c0,3.009-1.37,4.701-4.102,5.076c-11.965,0.943-21.193,7.05-27.686,18.33
		C186.961,94.886,183.717,110.678,183.717,130.981z"/>
</g>
</svg>
